<svg width="24" height="24" viewBox="0 0 24 24" fill="none" xmlns="http://www.w3.org/2000/svg">
<path fill-rule="evenodd" clip-rule="evenodd" d="M9.60253 15.1365C9.41053 15.1365 9.21853 15.0635 9.07253 14.9165C8.77953 14.6235 8.77953 14.1495 9.07253 13.8565L13.8645 9.06448C14.1575 8.77148 14.6315 8.77148 14.9245 9.06448C15.2175 9.35748 15.2175 9.83148 14.9245 10.1245L10.1325 14.9165C9.98653 15.0635 9.79453 15.1365 9.60253 15.1365Z" fill="#C0C0C0"/>
<path fill-rule="evenodd" clip-rule="evenodd" d="M14.3966 15.1395C14.2046 15.1395 14.0126 15.0665 13.8666 14.9195L9.07058 10.1225C8.77758 9.82952 8.77758 9.35552 9.07058 9.06252C9.36458 8.76952 9.83858 8.76952 10.1306 9.06252L14.9266 13.8595C15.2196 14.1525 15.2196 14.6265 14.9266 14.9195C14.7806 15.0665 14.5876 15.1395 14.3966 15.1395Z" fill="#C0C0C0"/>
<path fill-rule="evenodd" clip-rule="evenodd" d="M7.665 3.50098C5.135 3.50098 3.5 5.23398 3.5 7.91698V16.085C3.5 18.768 5.135 20.501 7.665 20.501H16.333C18.864 20.501 20.5 18.768 20.5 16.085V7.91698C20.5 5.23398 18.864 3.50098 16.334 3.50098H7.665ZM16.333 22.001H7.665C4.276 22.001 2 19.623 2 16.085V7.91698C2 4.37898 4.276 2.00098 7.665 2.00098H16.334C19.723 2.00098 22 4.37898 22 7.91698V16.085C22 19.623 19.723 22.001 16.333 22.001Z" fill="#C0C0C0"/>
</svg>
