<svg width="20" height="20" viewBox="0 0 20 20" fill="none" xmlns="http://www.w3.org/2000/svg">
<path fill-rule="evenodd" clip-rule="evenodd" d="M2.59837 10.3885C2.46754 10.146 2.46754 9.85185 2.59837 9.60935C4.17504 6.69352 7.08754 4.16602 10 4.16602C12.9125 4.16602 15.825 6.69352 17.4017 9.61018C17.5325 9.85268 17.5325 10.1468 17.4017 10.3893C15.825 13.3052 12.9125 15.8327 10 15.8327C7.08754 15.8327 4.17504 13.3052 2.59837 10.3885Z" stroke="#C9C9C9" stroke-width="1.5" stroke-linecap="round" stroke-linejoin="round"/>
<path d="M11.7678 8.23223C12.7441 9.20854 12.7441 10.7915 11.7678 11.7678C10.7915 12.7441 9.20854 12.7441 8.23223 11.7678C7.25592 10.7915 7.25592 9.20854 8.23223 8.23223C9.20854 7.25592 10.7915 7.25592 11.7678 8.23223" stroke="#C9C9C9" stroke-width="1.4286" stroke-linecap="round" stroke-linejoin="round"/>
</svg>
