<svg width="20" height="20" viewBox="0 0 20 20" fill="none" xmlns="http://www.w3.org/2000/svg">
<path d="M10 15.8329C9.29833 15.8329 8.59583 15.6845 7.91333 15.4204" stroke="#C9C9C9" stroke-width="1.5" stroke-linecap="round" stroke-linejoin="round"/>
<path d="M17.4017 10.3896C15.825 13.3055 12.9125 15.833 10 15.833" stroke="#C9C9C9" stroke-width="1.5" stroke-linecap="round" stroke-linejoin="round"/>
<path d="M15.8992 7.43457C16.475 8.10874 16.9867 8.84374 17.4017 9.61124C17.5325 9.85374 17.5325 10.1479 17.4017 10.3904" stroke="#C9C9C9" stroke-width="1.5" stroke-linecap="round" stroke-linejoin="round"/>
<path d="M4.16675 15.8337L15.8334 4.16699" stroke="#C9C9C9" stroke-width="1.5" stroke-linecap="round" stroke-linejoin="round"/>
<path d="M8.14424 11.8562C7.11924 10.8312 7.11924 9.16875 8.14424 8.14375C9.16924 7.11875 10.8317 7.11875 11.8567 8.14375" stroke="#C9C9C9" stroke-width="1.5" stroke-linecap="round" stroke-linejoin="round"/>
<path d="M14.2034 5.79699C12.9142 4.79949 11.4567 4.16699 10 4.16699C7.08754 4.16699 4.17504 6.69449 2.59837 9.61116C2.46754 9.85366 2.46754 10.1478 2.59837 10.3903C3.3867 11.8478 4.50837 13.2078 5.7967 14.2045" stroke="#C9C9C9" stroke-width="1.5" stroke-linecap="round" stroke-linejoin="round"/>
</svg>
